<?xml version="1.0" encoding="utf-8"?><svg xmlns="http://www.w3.org/2000/svg" xmlns:xlink="http://www.w3.org/1999/xlink" width="1869" height="424" preserveAspectRatio="xMidYMid" viewBox="0 0 1869 424" style="z-index:1;margin-right:-2px;display:block;background-repeat-y:initial;background-repeat-x:initial;animation-play-state:paused" ><g transform="translate(934.5,212) scale(1,1) translate(-934.5,-212)" style="transform:matrix(1, 0, 0, 1, 0, 0);animation-play-state:paused" ><linearGradient id="lg-0.057064144638832914" x1="0" x2="1" y1="0" y2="0" style="animation-play-state:paused" ><stop stop-color="#c3e793" offset="0" style="animation-play-state:paused" ></stop>

  
<stop stop-color="#c3e795" offset="1" style="animation-play-state:paused" ></stop></linearGradient>
<path d="M 0 0 L 0 325.92 Q 133.5 353.672 267 321.149 T 534 239.745 T 801 227.018 T 1068 164.897 T 1335 142.666 T 1602 103.7 T 1869 107.231 L 1869 0 Z" fill="url(#lg-0.057064144638832914)" opacity="0.4" style="opacity:0.4;animation-play-state:paused" ></path>
<path d="M 0 0 L 0 370.855 Q 133.5 331.877 267 306.297 T 534 289.836 T 801 263.001 T 1068 197.735 T 1335 129.508 T 1602 85.4054 T 1869 25.7815 L 1869 0 Z" fill="url(#lg-0.057064144638832914)" opacity="0.4" style="opacity:0.4;animation-play-state:paused" ></path>
<path d="M 0 0 L 0 303.688 Q 133.5 337.099 267 295.806 T 534 257.683 T 801 245.741 T 1068 173.259 T 1335 183.526 T 1602 71.1391 T 1869 116.045 L 1869 0 Z" fill="url(#lg-0.057064144638832914)" opacity="0.4" style="opacity:0.4;animation-play-state:paused" ></path>
<path d="M 0 0 L 0 346.373 Q 133.5 342.816 267 320.676 T 534 311.822 T 801 211.594 T 1068 231.512 T 1335 155.898 T 1602 58.9861 T 1869 40.5556 L 1869 0 Z" fill="url(#lg-0.057064144638832914)" opacity="0.4" style="opacity:0.4;animation-play-state:paused" ></path>
<path d="M 0 0 L 0 352.244 Q 133.5 301.206 267 269.575 T 534 284.29 T 801 261.127 T 1068 198.155 T 1335 146.477 T 1602 94.2082 T 1869 39.4073 L 1869 0 Z" fill="url(#lg-0.057064144638832914)" opacity="0.4" style="opacity:0.4;animation-play-state:paused" ></path>
<path d="M 0 0 L 0 341.406 Q 133.5 356.43 267 318.419 T 534 277.415 T 801 215.794 T 1068 152.34 T 1335 134.01 T 1602 90.6477 T 1869 59.916 L 1869 0 Z" fill="url(#lg-0.057064144638832914)" opacity="0.4" style="opacity:0.4;animation-play-state:paused" ></path>
<path d="M 0 0 L 0 338.086 Q 133.5 317.751 267 288.978 T 534 276.743 T 801 275.132 T 1068 170.236 T 1335 148.728 T 1602 86.0536 T 1869 59.5813 L 1869 0 Z" fill="url(#lg-0.057064144638832914)" opacity="0.4" style="opacity:0.4;animation-play-state:paused" ></path>
<path d="M 0 0 L 0 318.866 Q 133.5 337.995 267 296.95 T 534 289.798 T 801 203.522 T 1068 161.59 T 1335 137.98 T 1602 105.847 T 1869 87.1985 L 1869 0 Z" fill="url(#lg-0.057064144638832914)" opacity="0.4" style="opacity:0.4;animation-play-state:paused" ></path>
<path d="M 0 0 L 0 345.637 Q 133.5 357.662 267 319.627 T 534 306.536 T 801 253.905 T 1068 182.691 T 1335 168.037 T 1602 75.82 T 1869 92.965 L 1869 0 Z" fill="url(#lg-0.057064144638832914)" opacity="0.4" style="opacity:0.4;animation-play-state:paused" ></path>
<path d="M 0 0 L 0 319.957 Q 133.5 326.952 267 283.985 T 534 266.993 T 801 242.007 T 1068 163.196 T 1335 174.89 T 1602 101.554 T 1869 109.819 L 1869 0 Z" fill="url(#lg-0.057064144638832914)" opacity="0.4" style="opacity:0.4;animation-play-state:paused" ></path></g></svg>